<?xml version="1.0" standalone="no"?>
<!DOCTYPE svg PUBLIC "-//W3C//DTD SVG 20010904//EN"
 "http://www.w3.org/TR/2001/REC-SVG-20010904/DTD/svg10.dtd">
<svg version="1.0" xmlns="http://www.w3.org/2000/svg"
 width="192.000000pt" height="192.000000pt" viewBox="0 0 192.000000 192.000000"
 preserveAspectRatio="xMidYMid meet">
<metadata>
Created by potrace 1.14, written by Peter Selinger 2001-2017
</metadata>
<g transform="translate(0.000000,192.000000) scale(0.100000,-0.100000)"
fill="#000000" stroke="none">
<path d="M770 1195 c0 -9 5 -15 11 -13 6 2 11 8 11 13 0 5 -5 11 -11 13 -6 2
-11 -4 -11 -13z"/>
<path d="M1410 1196 c0 -9 7 -16 16 -16 9 0 14 5 12 12 -6 18 -28 21 -28 4z"/>
<path d="M319 1182 c15 -28 14 -185 -1 -200 -9 -9 -5 -12 21 -12 26 0 31 3 23
13 -6 6 -10 54 -11 105 0 76 3 94 16 99 18 7 42 -5 56 -29 16 -24 0 -65 -30
-77 -27 -11 -27 -11 6 -6 46 7 61 21 61 60 0 44 -21 58 -92 63 -58 4 -60 4
-49 -16z"/>
<path d="M530 1180 c-10 -19 -10 -20 9 -8 17 10 23 9 41 -7 l22 -20 -13 28
c-14 32 -44 35 -59 7z"/>
<path d="M662 1139 c-14 -17 -18 -29 -11 -31 11 -4 17 -40 18 -110 1 -21 6
-28 20 -28 11 0 23 5 26 10 4 6 1 9 -7 8 -9 -2 -14 14 -16 59 -2 52 0 62 15
66 16 4 16 5 1 6 -9 1 -18 11 -20 24 l-3 24 -23 -28z"/>
<path d="M518 1119 c-10 -5 -18 -17 -18 -24 0 -22 17 -18 23 6 7 28 51 23 55
-7 2 -15 -5 -24 -27 -33 -44 -19 -68 -48 -55 -69 14 -21 50 -27 70 -12 10 9
14 9 14 1 0 -13 36 -15 44 -2 3 5 -1 11 -9 15 -11 4 -15 21 -15 65 0 44 -4 60
-16 65 -22 9 -46 7 -66 -5z m62 -89 c0 -30 -30 -57 -50 -45 -18 11 -11 43 12
59 32 22 38 20 38 -14z"/>
<path d="M775 1122 c-5 -4 -10 -40 -10 -79 0 -70 1 -73 24 -73 18 0 21 3 13
13 -6 7 -12 43 -14 80 -2 42 -7 64 -13 59z"/>
<path d="M868 1119 c-31 -18 -22 -54 22 -83 42 -28 51 -50 24 -60 -18 -7 -50
8 -57 26 -3 7 -6 3 -6 -8 -1 -28 45 -39 77 -18 34 22 28 50 -17 78 -49 31 -55
40 -36 56 18 15 52 4 58 -18 4 -13 5 -12 6 4 1 15 -7 24 -21 28 -29 7 -30 7
-50 -5z"/>
<path d="M996 1108 c-19 -26 -7 -52 33 -73 33 -17 44 -38 28 -54 -8 -8 -8 -11
1 -11 16 0 33 36 26 55 -4 9 -24 25 -46 36 -26 13 -38 26 -36 37 5 26 44 27
62 0 16 -22 16 -22 16 -1 0 13 -8 23 -22 27 -37 9 -46 7 -62 -16z"/>
<path d="M1188 1114 c12 -8 22 -22 22 -30 0 -8 7 -14 15 -14 8 0 15 6 15 14 0
17 -38 46 -59 46 -11 0 -8 -5 7 -16z"/>
<path d="M1287 1122 c-14 -3 -16 -7 -7 -17 7 -9 10 -39 8 -75 -3 -58 -2 -60
22 -59 14 0 19 3 13 6 -8 3 -13 25 -13 58 0 56 10 72 43 67 19 -4 23 13 6 23
-5 4 -19 -1 -29 -10 -14 -13 -19 -14 -22 -3 -1 7 -11 12 -21 10z"/>
<path d="M1415 1122 c-6 -4 -10 -40 -10 -80 0 -65 2 -72 20 -72 18 0 20 6 17
72 -4 75 -10 93 -27 80z"/>
<path d="M1512 1110 c-29 -27 -31 -99 -4 -123 26 -24 66 -21 88 6 10 12 12 16
4 10 -38 -34 -90 0 -90 59 0 57 54 79 67 28 6 -23 33 -27 33 -6 0 18 -38 46
-60 46 -9 0 -26 -9 -38 -20z"/>
<path d="M1137 1102 c-23 -26 -22 -94 1 -115 23 -21 66 -22 86 -1 9 8 16 18
16 22 0 3 -5 1 -12 -6 -18 -18 -53 -15 -71 6 -20 22 -22 83 -5 100 7 7 10 12
7 12 -3 0 -13 -8 -22 -18z"/>
<path d="M984 990 c0 -12 7 -20 18 -20 17 0 17 1 1 20 -10 11 -18 20 -18 20 0
0 -1 -9 -1 -20z"/>
<path d="M510 880 c0 -5 5 -10 10 -10 6 0 10 5 10 10 0 6 -4 10 -10 10 -5 0
-10 -4 -10 -10z"/>
<path d="M1616 881 c-4 -5 -2 -12 3 -15 5 -4 12 -2 15 3 4 5 2 12 -3 15 -5 4
-12 2 -15 -3z"/>
<path d="M171 856 c-33 -35 -31 -93 4 -123 14 -13 36 -23 48 -23 19 0 18 3
-10 20 -54 33 -56 110 -3 137 23 12 23 13 4 13 -11 0 -31 -11 -43 -24z"/>
<path d="M262 860 c25 -20 31 -20 23 1 -3 8 -15 15 -26 16 -19 2 -18 1 3 -17z"/>
<path d="M847 873 c-4 -3 -7 -20 -7 -37 0 -19 -8 -38 -20 -49 -11 -9 -20 -26
-20 -37 0 -23 35 -41 60 -32 11 4 8 8 -10 12 -28 7 -38 34 -19 56 11 14 15 13
31 -8 9 -13 18 -28 18 -35 0 -16 68 -29 82 -15 8 8 5 9 -9 6 -38 -10 -117 103
-92 132 11 14 -1 20 -14 7z"/>
<path d="M890 865 c10 -12 10 -18 -1 -32 -12 -17 -12 -17 5 -1 19 17 16 48 -5
48 -8 0 -8 -4 1 -15z"/>
<path d="M1055 800 c0 -66 3 -80 15 -80 12 0 15 8 12 35 -2 21 0 35 6 35 6 0
23 -16 38 -35 14 -19 33 -35 41 -35 11 0 7 9 -11 31 -30 35 -31 42 -11 59 37
31 6 70 -57 70 l-33 0 0 -80z m75 51 c7 -15 6 -23 -6 -35 -27 -27 -44 -20 -44
19 0 28 4 35 20 35 10 0 24 -9 30 -19z"/>
<path d="M320 799 c0 -62 2 -70 18 -67 14 3 18 16 20 71 3 62 1 67 -18 67 -18
0 -20 -6 -20 -71z"/>
<path d="M397 824 c-4 -4 -7 -14 -7 -23 1 -14 2 -14 14 2 16 21 36 22 36 2 0
-9 -11 -20 -24 -27 -14 -6 -28 -18 -31 -26 -7 -19 19 -47 35 -37 8 5 6 11 -7
21 -17 13 -17 15 2 29 19 15 20 14 25 -12 3 -18 12 -29 25 -31 13 -2 16 0 8 5
-6 5 -13 29 -15 53 -3 40 -6 45 -28 48 -14 2 -29 0 -33 -4z"/>
<path d="M509 828 c0 -2 -1 -27 -2 -56 -1 -36 2 -52 11 -52 8 0 12 18 12 55 0
30 -4 55 -10 55 -5 0 -10 -1 -11 -2z"/>
<path d="M569 826 c-2 -2 -2 -27 -1 -55 5 -63 27 -70 27 -9 0 36 3 43 25 48
17 4 21 8 12 14 -7 4 -19 2 -27 -4 -11 -9 -15 -9 -15 -1 0 11 -13 15 -21 7z"/>
<path d="M655 806 c-31 -47 10 -110 55 -86 25 13 26 23 3 16 -27 -8 -45 8 -49
43 -4 37 21 55 41 28 18 -25 39 -22 25 3 -15 28 -56 26 -75 -4z"/>
<path d="M1230 774 c1 -41 3 -54 10 -43 10 17 7 85 -4 96 -3 3 -6 -20 -6 -53z"/>
<path d="M1309 828 c0 -2 -1 -27 -2 -56 -1 -36 2 -52 11 -52 8 0 12 18 12 55
0 30 -4 55 -10 55 -5 0 -10 -1 -11 -2z"/>
<path d="M1344 818 c-4 -6 -3 -8 3 -5 18 11 35 -21 31 -58 -3 -24 0 -35 9 -35
9 0 13 15 13 44 0 28 5 46 14 49 21 8 26 -2 26 -50 0 -28 4 -43 13 -43 8 0 11
15 8 51 -3 55 -20 71 -52 51 -11 -7 -20 -8 -24 -2 -8 14 -32 13 -41 -2z"/>
<path d="M1501 816 c-7 -8 -8 -17 -3 -20 6 -3 12 1 16 9 3 8 12 15 20 15 20 0
20 -79 0 -87 -22 -8 -30 5 -16 28 12 19 11 19 -8 9 -22 -12 -26 -30 -8 -48 7
-7 17 -8 29 -2 12 7 20 6 24 0 14 -22 20 1 15 52 -4 48 -7 53 -31 56 -14 2
-31 -4 -38 -12z"/>
<path d="M1619 828 c0 -2 -1 -27 -2 -56 -1 -36 2 -52 11 -52 8 0 12 18 12 55
0 30 -4 55 -10 55 -5 0 -10 -1 -11 -2z"/>
<path d="M1679 828 c0 -2 -1 -27 -2 -56 -1 -36 2 -52 11 -52 8 0 12 18 12 55
0 30 -4 55 -10 55 -5 0 -10 -1 -11 -2z"/>
<path d="M1714 819 c-4 -7 -3 -9 4 -5 16 10 35 -31 30 -65 -3 -17 0 -29 7 -29
19 0 3 104 -17 108 -9 2 -20 -2 -24 -9z"/>
<path d="M923 814 c3 -4 2 -15 -4 -25 -14 -28 -4 -23 15 6 15 23 15 25 0 25
-10 0 -14 -3 -11 -6z"/>
</g>
</svg>
